<svg id="Capa_1" data-name="Capa 1" xmlns="http://www.w3.org/2000/svg" xmlns:xlink="http://www.w3.org/1999/xlink" viewBox="0 0 278.02 278.02"><defs><style>.cls-1{fill:none;}.cls-2{fill:#78c5b8;}.cls-3{clip-path:url(#clip-path);}.cls-4{fill:url(#Degradado_sin_nombre_19);}.cls-5{fill:#f9dd8f;}.cls-6{fill:url(#Degradado_sin_nombre_11);}.cls-7{fill:url(#Degradado_sin_nombre_16);}.cls-8{fill:#e5ae00;}.cls-9{fill:#ead592;}.cls-10{fill:#fff;}.cls-11{fill:#7095a5;}.cls-12{fill:#8cb5c7;}.cls-13{fill:#ffdc6a;}.cls-14{fill:#fff4cd;}.cls-15{fill:url(#Degradado_sin_nombre_17);}.cls-16{fill:#f2d169;}.cls-17{fill:#f3e7c3;}.cls-18{fill:#383432;}</style><clipPath id="clip-path"><path class="cls-1" d="M278,139A139,139,0,1,1,139,0,139,139,0,0,1,278,139"/></clipPath><linearGradient id="Degradado_sin_nombre_19" x1="12" y1="52.61" x2="266.06" y2="225.43" gradientUnits="userSpaceOnUse"><stop offset="0" stop-color="#f8c2ba"/><stop offset="0.36" stop-color="#f3beb6"/><stop offset="0.8" stop-color="#e3b3ac"/><stop offset="1" stop-color="#daada6"/></linearGradient><linearGradient id="Degradado_sin_nombre_11" x1="38.68" y1="239.91" x2="239.34" y2="239.91" gradientUnits="userSpaceOnUse"><stop offset="0" stop-color="#7fb8d1"/><stop offset="1" stop-color="#b3dcd8"/></linearGradient><linearGradient id="Degradado_sin_nombre_16" x1="109.75" y1="178.67" x2="168.27" y2="178.67" gradientUnits="userSpaceOnUse"><stop offset="0" stop-color="#fde9b1"/><stop offset="0.38" stop-color="#f8e4ae"/><stop offset="0.85" stop-color="#e8d6a4"/><stop offset="0.9" stop-color="#e6d4a3"/></linearGradient><linearGradient id="Degradado_sin_nombre_17" x1="123.89" y1="88.39" x2="184.66" y2="177.38" gradientUnits="userSpaceOnUse"><stop offset="0" stop-color="#fde9b1"/><stop offset="0.66" stop-color="#f8e4ad"/><stop offset="0.9" stop-color="#f5e0aa"/></linearGradient></defs><circle class="cls-2" cx="139.01" cy="139.01" r="139.01"/><g class="cls-3"><path class="cls-4" d="M278,139A139,139,0,1,1,139,0,139,139,0,0,1,278,139"/><path class="cls-5" d="M191.74,119.93c-4-2.43-9.78,2.26-13,10.48s-2.6,16.87,1.36,19.3,9.79-2.26,13-10.48,2.61-16.86-1.36-19.3Z"/><path class="cls-5" d="M86.27,119.93c4-2.43,9.79,2.26,13,10.48s2.6,16.87-1.37,19.3-9.79-2.26-13-10.48-2.6-16.86,1.36-19.3"/><path class="cls-6" d="M235.34,219.18c-10.61-13.7-67.07-17.38-67.07-17.38H109.75s-56.47,3.68-67.07,17.38c-9,11.63,0,58.84,0,58.84H235.34s9-47.21,0-58.84Z"/><path class="cls-7" d="M163.19,144H114.83l-5.08,57.84c0,6.4,13.1,11.58,29.26,11.58s29.26-5.18,29.26-11.58L163.19,144"/><polyline class="cls-8" points="111.9 177.27 111.9 177.27 112.18 174.13 112.18 174.13 111.9 177.27"/><path class="cls-9" d="M139,189.81c-9.89,0-19.14-4.79-27.11-12.54l.28-3.14c7.74,7.42,16.69,12,26.24,12.2H139c9.77,0,18.92-4.65,26.83-12.23l.28,3.22c-8,7.73-17.23,12.49-27.11,12.49"/><path class="cls-10" d="M176.09,202.48c-1.6-.15-5.16-.44-7-.58L139,213.58l7,18.26,28.52-14.78,1.61-14.58Z"/><path class="cls-10" d="M101.94,202.48c1.6-.15,5.16-.44,7-.58L139,213.58l-6.94,18.26-28.52-14.78-1.61-14.58Z"/><polygon class="cls-11" points="139.01 213.59 140.75 278.02 137.28 278.02 139.01 213.59 139.01 213.59"/><path class="cls-12" d="M172.64,202.09v.09l-3.53-.28L139,213.58l6,18.62.34,1,1.09-.49,29.29-13.29,1.19-.53.25-1.57,2.39-14.51Z"/><path class="cls-12" d="M105.4,202.18v-.09l-6.91.76,2.38,14.51.26,1.57,1.19.53,29.28,13.29,1.1.49.33-1,6-18.62L108.93,201.9Z"/><path class="cls-13" d="M112.18,174.13a81.68,81.68,0,0,1-16.6-23.77h0a81.68,81.68,0,0,0,16.6,23.77h0M86.26,119.94a99.79,99.79,0,0,1-1.13-13.61,99.79,99.79,0,0,0,1.13,13.61h0M85.13,104h0m0-.15v0m0-.67c0-.23,0-.47,0-.7,0,.23,0,.47,0,.7m0-.76a1.09,1.09,0,0,1,0-.18,1.09,1.09,0,0,0,0,.18m0-.2v0m0-.21a1.41,1.41,0,0,0,0-.2,1.41,1.41,0,0,1,0,.2m0-.21C86.44,70.15,105,52.7,129.3,49.11c-24.26,3.59-42.86,21-44.11,52.72M129.3,49.11h0m.09,0,.33-.05-.33.05m.33-.05.33,0-.33,0m.34,0h0m.08,0h0m.1,0h0m.08,0h0m.08,0h0m.08,0h0m.09,0h0m.08,0h0m.1,0h0m.08,0h0m.09,0h0m.08,0h0m.08,0h0m.08,0h0m.09,0h0m.08,0h0m.09,0h0m.08,0h0m.08,0h0m.09,0h0m.1,0h0m.08,0h0m.08,0h0m.08,0h0m.09,0h0m.09,0h0m.09,0h0m.09,0h0m.08,0h0m.08,0h0m.09,0h0m.08,0h0m.09,0h0m.09,0h0m.08,0h0m.08,0h0m.09,0h0m.08,0h0m.08,0h0m.1,0h0m.09,0h0m.08,0h0m.08,0h0m.09,0h0m.09,0h0m.08,0h0m.09,0h0m.08,0h0m.09,0h0m.08,0h0m.09,0h0m.08,0h0m.09,0h0m.09,0h0m.09,0h0m.08,0h0m.09,0h0m.09,0h0m.08,0h0m.08,0h0m.09,0h0m.08,0h0m.09,0h0m.09,0h0m.86,0h0m.07,0h0m.08,0h0m.09,0h0m.09,0h0m.09,0h0m.09,0h0m.09,0h0m.08,0h0m.08,0h0m.09,0h0m.09,0h0m.1,0h0m.08,0h0m.08,0h0m.09,0h0m.08,0h0m.09,0h0m.08,0h0m.08,0h0m.08,0h0m.08,0h0m.09,0h0m.09,0h0m.08,0h0m.09,0h0m.09,0h0m.09,0h0m.08,0h0m.09,0h0m.09,0h0m.08,0h0"/><path class="cls-14" d="M95.58,150.36h0a109.42,109.42,0,0,1-9.32-30.42h0a109.31,109.31,0,0,0,9.32,30.42"/><path class="cls-15" d="M139,48.41h-2.8l-.76,0h-5.4l-.33,0h0l-.33.05h-.09l-.65.11-1,.16-1.53.29-.93.19-1.62.39-.77.19c-.79.21-1.57.43-2.34.67l-.11,0c-.74.23-1.46.47-2.18.73l-.76.29-1.48.58-.86.37-1.33.6-.87.42c-.44.22-.87.44-1.29.67l-.83.44c-.45.25-.89.51-1.33.77l-.72.43c-.61.38-1.2.77-1.79,1.17l-.25.18c-.62.42-1.22.87-1.81,1.32-.23.17-.44.35-.66.53l-1.18,1c-.24.2-.48.42-.72.63l-1,1-.72.7-1,1-.68.73-1,1.13-.59.69q-.63.78-1.23,1.59c-.1.12-.2.25-.29.38-.46.63-.91,1.28-1.35,1.94l-.48.76c-.28.45-.57.9-.84,1.36l-.51.9c-.25.44-.49.88-.72,1.33s-.33.64-.49,1-.45.92-.66,1.38l-.45,1c-.21.5-.42,1-.63,1.53-.12.31-.25.61-.37.93-.25.68-.5,1.37-.73,2.07,0,.16-.11.31-.17.47-.28.86-.53,1.73-.78,2.62l-.24.93c-.15.61-.31,1.21-.45,1.83l-.24,1.12c-.12.57-.23,1.15-.34,1.74-.07.4-.14.8-.2,1.2q-.15.9-.27,1.8c-.06.4-.11.8-.16,1.21-.08.65-.15,1.32-.21,2,0,.36-.07.73-.1,1.1-.07.88-.13,1.78-.17,2.69,0,.16,0,.32,0,.49v0h0a1.41,1.41,0,0,1,0,.2h0v.22a1.09,1.09,0,0,0,0,.18v.06c0,.23,0,.47,0,.7s0,.2,0,.3V104h0v2.3c0,.07,0,.14,0,.2,0,1,0,2,.09,3,0,.16,0,.32,0,.48,0,1,.12,2,.2,3,0,.15,0,.31,0,.46q.12,1.5.3,3c0,.13,0,.26,0,.39.12,1,.26,2.06.41,3.09a.22.22,0,0,1,0,.08l0,.13c.18,1.23.39,2.45.62,3.67,0,.12,0,.24.07.35.23,1.18.47,2.36.74,3.53l.09.39c.27,1.18.56,2.35.87,3.52l.09.33c.33,1.21.67,2.42,1,3.63a.57.57,0,0,1,0,.14c.39,1.24.79,2.48,1.21,3.71l.06.15c.41,1.18.84,2.35,1.29,3.5,0,.11.08.22.13.33.43,1.1.87,2.19,1.34,3.27L94,147c.47,1.07.95,2.13,1.45,3.17l.09.21.07.14c.51,1.06,1,2.1,1.57,3.13l.12.24c.58,1.09,1.17,2.17,1.78,3.23v0c.61,1.05,1.24,2.09,1.88,3.1l.15.23c.6.95,1.22,1.88,1.85,2.79l.21.31c.62.88,1.25,1.74,1.89,2.59l.25.32c.64.84,1.3,1.65,2,2.45l.24.28q1,1.22,2.1,2.37l.18.19c.76.81,1.53,1.59,2.32,2.35l0,0h0c5.77,5.53,12.22,9.49,19.09,11.23l.26.06,1.39.31.3.06a32.32,32.32,0,0,0,3.26.44l.47,0,1.17.05.3,0H139c29.75,0,53.88-43,53.88-81.09S168.76,48.41,139,48.41Z"/><polyline class="cls-16" points="112.18 174.13 112.18 174.13 112.18 174.13 112.18 174.13 112.18 174.13"/><polyline class="cls-17" points="112.18 174.13 112.18 174.13 112.18 174.1 112.18 174.1 112.18 174.13"/><path class="cls-17" d="M139,186.33h0m-.08,0h0m-.09,0h0m-.08,0h0m-.09,0h0m-.08,0h0m-.09,0h0m-.07,0c-9.55-.18-18.5-4.78-26.24-12.2h0v0c7.74,7.43,16.69,12.05,26.24,12.23"/><path class="cls-18" d="M139,48.41c-14.72,0-28,4.61-37.77,13.85a9.11,9.11,0,0,0-2,0l-2.07.2a12,12,0,0,0-1.68.32l-1.28.28-1.09.25,1.11.2,1.26.23a11.26,11.26,0,0,1,1.6.34l1,.31c-.59.09-1.19.18-1.76.29a24.84,24.84,0,0,0-2.68.75,13.27,13.27,0,0,0-2.28,1,7.77,7.77,0,0,0-1.75,1.13,5.52,5.52,0,0,0-1.15,1.08l-.83,1L88.73,69a5,5,0,0,1,1.33-.59A6.59,6.59,0,0,1,91.87,68a10.77,10.77,0,0,1,2.18-.15,8,8,0,0,1,1.53.07l-.63.27a32.42,32.42,0,0,0-4.67,2.63,20.27,20.27,0,0,0-3.52,3,14.89,14.89,0,0,0-1.11,1.46,6,6,0,0,0-.7,1.19l-.51,1.07.87-.79a5.33,5.33,0,0,1,1-.8c.45-.26.89-.59,1.44-.85a18.25,18.25,0,0,1,3.87-1.32c.29-.06.6-.1.89-.15-4.67,8.41-7.4,18.91-7.4,31.6a100.34,100.34,0,0,0,2.08,19.94h3.54s1.43-15.58,7.35-20.88c3.56-3.19,6.1-15.6,7.56-25,1.07,4.32,2.94,9.23,6.24,12.28,0,0-3.27-7.31,0-10.51,0,0,3,11.24,7.08,14,0,0-.62-3.53,1.87-5.71,0,0,4.67,17.45,51.11,7.8,0,0,14.91,18.08,15.37,28h3.48a101.08,101.08,0,0,0,2.08-19.94c0-38.08-24.13-56.83-53.88-56.83Z"/></g></svg>