<svg id="Capa_1" data-name="Capa 1" xmlns="http://www.w3.org/2000/svg" xmlns:xlink="http://www.w3.org/1999/xlink" viewBox="0 0 278.02 278.02"><defs><style>.cls-1{fill:url(#Degradado_sin_nombre_5);}.cls-2{fill:url(#Degradado_sin_nombre_24);}.cls-3{fill:url(#Degradado_sin_nombre_22);}</style><linearGradient id="Degradado_sin_nombre_5" x1="26.5" y1="46.63" x2="241.37" y2="223.06" gradientUnits="userSpaceOnUse"><stop offset="0" stop-color="#78c5b8"/><stop offset="1" stop-color="#619d92"/></linearGradient><linearGradient id="Degradado_sin_nombre_24" x1="54.96" y1="89.64" x2="218.16" y2="181.44" gradientUnits="userSpaceOnUse"><stop offset="0" stop-color="#e6efed"/><stop offset="0.28" stop-color="#d9eae8"/><stop offset="0.78" stop-color="#b8deda"/><stop offset="0.86" stop-color="#b3dcd8"/></linearGradient><linearGradient id="Degradado_sin_nombre_22" x1="-1.76" y1="225.27" x2="80.12" y2="225.27" gradientTransform="translate(-86.26 265.85) rotate(-90)" gradientUnits="userSpaceOnUse"><stop offset="0" stop-color="#e6efed"/><stop offset="0.06" stop-color="#d8eae7"/><stop offset="0.17" stop-color="#c7e4e0"/><stop offset="0.3" stop-color="#bcdfdc"/><stop offset="0.49" stop-color="#b5ddd9"/><stop offset="1" stop-color="#b3dcd8"/></linearGradient></defs><circle class="cls-1" cx="139.01" cy="139.01" r="139.01"/><path class="cls-2" d="M213.75,73H64.27A5.29,5.29,0,0,0,59,78.23V195.7a5.11,5.11,0,0,0,5.12,5.11h42.73V185.13h-32V111.36H203.19v73.77h-32v15.68h42.57a5.29,5.29,0,0,0,5.28-5.28V78.23A5.29,5.29,0,0,0,213.75,73ZM79.8,99.6a5.85,5.85,0,1,1,6-5.85A5.91,5.91,0,0,1,79.8,99.6Zm16,0a5.85,5.85,0,1,1,6-5.85A5.93,5.93,0,0,1,95.8,99.6Zm107.39-.88H106.84V88.79h96.35Z"/><polygon class="cls-3" points="111.07 169.64 125.61 169.64 125.61 216.99 152.41 216.99 152.41 169.64 166.95 169.64 139.1 135.12 111.07 169.64"/></svg>