<svg id="Capa_1" data-name="Capa 1" xmlns="http://www.w3.org/2000/svg" xmlns:xlink="http://www.w3.org/1999/xlink" viewBox="0 0 278.02 278.02"><defs><style>.cls-1{fill:url(#Degradado_sin_nombre_5);}.cls-2{fill:url(#Degradado_sin_nombre_25);}</style><linearGradient id="Degradado_sin_nombre_5" x1="26.5" y1="46.63" x2="241.37" y2="223.06" gradientUnits="userSpaceOnUse"><stop offset="0" stop-color="#78c5b8"/><stop offset="1" stop-color="#619d92"/></linearGradient><linearGradient id="Degradado_sin_nombre_25" x1="53.07" y1="101.05" x2="216.5" y2="186.13" gradientUnits="userSpaceOnUse"><stop offset="0" stop-color="#e6efed"/><stop offset="0.39" stop-color="#d0e7e4"/><stop offset="1" stop-color="#b3dcd8"/></linearGradient></defs><circle class="cls-1" cx="139.01" cy="139.01" r="139.01"/><path class="cls-2" d="M194.62,113H89.85a3,3,0,0,1-3-2.34,2.92,2.92,0,0,1,2.86-3.5H194.46a3,3,0,0,1,3.08,2.77,2.92,2.92,0,0,1-2.92,3.07ZM168,134.19H89.85a3,3,0,0,1-3-2.34,2.92,2.92,0,0,1,2.86-3.5h78.07a3,3,0,0,1,3.08,2.76,2.92,2.92,0,0,1-2.91,3.08Zm-34.26,21.14H89.91a3,3,0,0,1-3.08-2.76,2.91,2.91,0,0,1,2.91-3.07h43.87a3,3,0,0,1,3,2.33,2.93,2.93,0,0,1-2.87,3.5ZM213.06,78H65a6.51,6.51,0,0,0-6.51,6.52V178A6.51,6.51,0,0,0,65,184.56H87.2V226l37.85-41.44h88a6.51,6.51,0,0,0,6.51-6.52V84.5A6.52,6.52,0,0,0,213.06,78Z"/></svg>