<svg id="Capa_1" data-name="Capa 1" xmlns="http://www.w3.org/2000/svg" xmlns:xlink="http://www.w3.org/1999/xlink" viewBox="0 0 278.02 278.02"><defs><style>.cls-1{fill:url(#Degradado_sin_nombre_5);}.cls-2{fill:#b3dcd8;}.cls-3{fill:url(#Degradado_sin_nombre_26);}.cls-4{fill:url(#Degradado_sin_nombre_10);}</style><linearGradient id="Degradado_sin_nombre_5" x1="26.5" y1="46.63" x2="241.37" y2="223.06" gradientUnits="userSpaceOnUse"><stop offset="0" stop-color="#78c5b8"/><stop offset="1" stop-color="#619d92"/></linearGradient><linearGradient id="Degradado_sin_nombre_26" x1="64.8" y1="110.54" x2="156.61" y2="161.67" gradientUnits="userSpaceOnUse"><stop offset="0" stop-color="#e6efed"/><stop offset="0.4" stop-color="#d0e7e4"/><stop offset="1" stop-color="#b3dcd8"/></linearGradient><linearGradient id="Degradado_sin_nombre_10" x1="151.03" y1="92.87" x2="182.39" y2="92.87" gradientUnits="userSpaceOnUse"><stop offset="0" stop-color="#e6efed"/><stop offset="1" stop-color="#b3dcd8"/></linearGradient></defs><circle class="cls-1" cx="139.01" cy="139.01" r="139.01"/><polygon class="cls-2" points="192.41 117.08 192.41 127.92 157.09 127.92 157.09 147.91 192.41 147.91 192.41 158.76 218.15 137.99 192.41 117.08"/><path class="cls-3" d="M143.06,65.44A5.55,5.55,0,0,0,138.8,64L80.64,69.14a5.57,5.57,0,0,0-5.08,5.55V202.11a5.57,5.57,0,0,0,4.6,5.49L138.32,218a5.48,5.48,0,0,0,4.55-1.21,5.57,5.57,0,0,0,2-4.26V69.55A5.55,5.55,0,0,0,143.06,65.44Z"/><path class="cls-4" d="M182.39,116.82V73.26a4.34,4.34,0,0,0-4.33-4.34H151v8.67h22.69v39.23Z"/><path class="cls-2" d="M151,204.43v8.67h27a4.34,4.34,0,0,0,4.33-4.34v-50h-8.67v45.67Z"/></svg>