<svg id="Capa_1" data-name="Capa 1" xmlns="http://www.w3.org/2000/svg" xmlns:xlink="http://www.w3.org/1999/xlink" viewBox="0 0 278.76 278.02"><defs><style>.cls-1{fill:none;}.cls-2{fill:url(#Degradado_sin_nombre_19);}.cls-3{clip-path:url(#clip-path);}.cls-4{fill:url(#Degradado_sin_nombre_16);}.cls-5{fill:#463618;}.cls-6{fill:#31556c;}.cls-7{fill:#ead592;}.cls-8{fill:#ffe9a3;}.cls-9{fill:#fbc100;}.cls-10{fill:#f3e7c3;}.cls-11{fill:#958867;}.cls-12{fill:url(#Degradado_sin_nombre_17);}.cls-13{fill:#ea5717;}.cls-14{fill:#fff;}.cls-15{fill:url(#Degradado_sin_nombre_16-2);}.cls-16{fill:#cae2ef;}.cls-17{fill:#fff4cd;}.cls-18{fill:url(#Degradado_sin_nombre_17-2);}.cls-19{fill:#8bb3c7;}.cls-20{fill:#eadeb8;}.cls-21{fill:#b6ccd7;}.cls-22{fill:#383432;}.cls-23{fill:#5f5c5a;}.cls-24{fill:#cac7c6;}.cls-25{fill:#f9dd8f;}.cls-26{fill:url(#Degradado_sin_nombre_11);}.cls-27{fill:url(#Degradado_sin_nombre_16-3);}.cls-28{fill:#e5ae00;}.cls-29{fill:#7095a5;}.cls-30{fill:#8cb5c7;}.cls-31{fill:#ffdc6a;}.cls-32{fill:url(#Degradado_sin_nombre_17-3);}.cls-33{fill:#f2d169;}</style><linearGradient id="Degradado_sin_nombre_19" x1="12" y1="52.61" x2="266.06" y2="225.43" gradientUnits="userSpaceOnUse"><stop offset="0" stop-color="#f8c2ba"/><stop offset="0.36" stop-color="#f3beb6"/><stop offset="0.8" stop-color="#e3b3ac"/><stop offset="1" stop-color="#daada6"/></linearGradient><clipPath id="clip-path"><path class="cls-1" d="M278,139A139,139,0,1,1,139,0,139,139,0,0,1,278,139"/></clipPath><linearGradient id="Degradado_sin_nombre_16" x1="207.03" y1="195.91" x2="271.64" y2="195.91" gradientUnits="userSpaceOnUse"><stop offset="0" stop-color="#fde9b1"/><stop offset="0.38" stop-color="#f8e4ae"/><stop offset="0.85" stop-color="#e8d6a4"/><stop offset="0.9" stop-color="#e6d4a3"/></linearGradient><linearGradient id="Degradado_sin_nombre_17" x1="203.98" y1="159.16" x2="274.75" y2="159.16" gradientUnits="userSpaceOnUse"><stop offset="0" stop-color="#fde9b1"/><stop offset="0.66" stop-color="#f8e4ad"/><stop offset="0.9" stop-color="#f5e0aa"/></linearGradient><linearGradient id="Degradado_sin_nombre_16-2" x1="22.65" y1="181.9" x2="65.89" y2="181.9" xlink:href="#Degradado_sin_nombre_16"/><linearGradient id="Degradado_sin_nombre_17-2" x1="5.54" y1="137.77" x2="82.99" y2="137.77" xlink:href="#Degradado_sin_nombre_17"/><linearGradient id="Degradado_sin_nombre_11" x1="38.68" y1="239.91" x2="239.34" y2="239.91" gradientUnits="userSpaceOnUse"><stop offset="0" stop-color="#7fb8d1"/><stop offset="1" stop-color="#b3dcd8"/></linearGradient><linearGradient id="Degradado_sin_nombre_16-3" x1="109.75" y1="178.67" x2="168.27" y2="178.67" xlink:href="#Degradado_sin_nombre_16"/><linearGradient id="Degradado_sin_nombre_17-3" x1="123.89" y1="88.39" x2="184.66" y2="177.38" xlink:href="#Degradado_sin_nombre_17"/></defs><path class="cls-2" d="M278,139A139,139,0,1,1,139,0,139,139,0,0,1,278,139"/><path class="cls-1" d="M278,139A139,139,0,1,1,139,0,139,139,0,0,1,278,139"/><g class="cls-3"><path class="cls-4" d="M261.27,202.32a2.89,2.89,0,0,1-2.52-2.52l-3.21-36.44H223.13l-3.4,38.77s-5.5.35-12.7,1.31l2.63,16.68a57,57,0,0,0,59.35,0l2.63-16.68c-4.36-.59-8.08-.94-10.37-1.12"/><path class="cls-5" d="M296.85,139.73a17.42,17.42,0,0,0-7.14-14A13.29,13.29,0,0,0,277.25,109a11.61,11.61,0,0,0-9.92-9.83,19.15,19.15,0,0,0-25.26-9.27,20.78,20.78,0,0,0-33.94,5.93,13.42,13.42,0,0,0-10.54,13.1c0,.23,0,.46,0,.69a13.28,13.28,0,0,0-8.83,16.09,17.4,17.4,0,0,0,2.53,29.64,13.12,13.12,0,0,0,10.28,14.89,11.18,11.18,0,0,0-.16,1.53,11.49,11.49,0,1,0,15.77-10.64,13.42,13.42,0,0,0,.57-3.87,13.25,13.25,0,0,0-3.49-9,17.47,17.47,0,0,0,2.21-8.1,58.1,58.1,0,0,1,9-1.64c17.74-1.88,25.95-12,25.95-12s2.87,5.94,10.57,12.29c0,.3-.07.58-.07.88a17.43,17.43,0,0,0,2.23,8.53,13.25,13.25,0,0,0-3.49,9,13.42,13.42,0,0,0,.57,3.87,11.48,11.48,0,1,0,15.77,10.64,11.18,11.18,0,0,0-.16-1.53,13.12,13.12,0,0,0,10.28-14.89,17.42,17.42,0,0,0,9.67-15.59"/><path class="cls-6" d="M221.17,185.69h0l.19-2.11h0l-.18,2.11m36.24-1.09-.09-1h0l.08,1"/><path class="cls-7" d="M239.34,194.09c-6.63,0-12.83-3.2-18.17-8.4l.18-2.11c5,4.77,10.7,7.8,16.8,8.15h.17l1,0h.14c6.52,0,12.63-3.13,17.9-8.18l.09,1,.1,1.12c-5.34,5.18-11.54,8.37-18.17,8.37"/><path class="cls-8" d="M274.69,147.24c-2.66-1.63-6.56,1.52-8.71,7s-1.75,11.31.91,12.94,6.56-1.51,8.72-7,1.74-11.3-.92-12.94Z"/><path class="cls-8" d="M204,147.24c2.66-1.63,6.56,1.52,8.72,7s1.74,11.31-.92,12.94-6.56-1.51-8.71-7-1.75-11.3.91-12.94"/><path class="cls-9" d="M268.44,166.33a3.64,3.64,0,1,0,3.64,3.64,3.64,3.64,0,0,0-3.64-3.64Zm0,9.32a5.68,5.68,0,1,1,5.68-5.68,5.69,5.69,0,0,1-5.68,5.68Z"/><path class="cls-9" d="M210.22,166.33a3.64,3.64,0,1,0,3.65,3.64,3.65,3.65,0,0,0-3.65-3.64m0,9.32A5.68,5.68,0,1,1,215.9,170a5.69,5.69,0,0,1-5.68,5.68"/><path class="cls-10" d="M239.34,191.76h0m-.05,0h0m-1,0h0m0,0h0m-.05,0h0m0,0h0m0,0c-6.1-.35-11.82-3.38-16.8-8.15h0c5,4.77,10.7,7.8,16.8,8.15h0"/><path class="cls-11" d="M225.53,138.52h0"/><path class="cls-11" d="M225.61,138.51h0"/><path class="cls-11" d="M225.67,138.51h0"/><path class="cls-11" d="M225.73,138.5a46.45,46.45,0,0,0,13.61-3.56h0a46.45,46.45,0,0,1-13.61,3.56"/><path class="cls-12" d="M274.75,146.8c-17.46-8.12-23.27-20.24-23.27-20.24s-4,4.94-12.53,8.55l-.84.35-.55.21-.84.31-.56.2-.93.31-.54.17-1.31.39-.21,0c-.52.14-1,.28-1.58.4l-.54.12-1.14.24-.65.12-1.12.19-.68.11-1.27.16-.66.08c-17.74,1.89-21.55,8.72-21.55,8.72h0c.1.72.23,1.44.36,2.15,0,.31.12.61.18.91l.24,1.24.24,1c.09.37.17.74.26,1.11l.27,1.07c.1.35.19.7.28,1.06s.21.71.32,1.07l.3,1c.11.36.23.71.34,1.06s.23.69.34,1l.37,1,.37,1,.39,1c.14.35.27.7.41,1,.06.13.1.25.16.38s.18.42.27.63.25.59.39.89c.05.13.11.26.17.39l.15.32c.44,1,.88,1.88,1.35,2.79l.06.11c.46.89.94,1.76,1.44,2.62l.17.31.15.25.51.83.42.69.11.17c.48.75,1,1.49,1.48,2.2l.35.49c.46.64.93,1.26,1.41,1.87l.26.33c.54.67,1.1,1.32,1.66,1.94l.43.47c.54.59,1.1,1.16,1.66,1.71l.1.1a.08.08,0,0,1,0,0l0,0c.39.37.78.72,1.17,1.07l.29.25c.37.32.74.62,1.11.92l.14.12c.42.32.85.64,1.27.94l.29.2c.35.24.7.48,1.06.7l.29.19c.44.27.87.52,1.32.77l.2.1c.37.2.76.4,1.14.58l.36.17q.63.28,1.26.54l.11,0c.45.18.91.33,1.37.48l.37.12c.37.11.74.21,1.12.3l.32.08c.46.11.93.2,1.39.27l.34,0c.37.05.75.1,1.13.13l.41,0,.26,0h.17l1,0h.06C256.86,191.76,271.45,169.52,274.75,146.8Z"/><path class="cls-13" d="M303.91,213.78c-4.38-5.69-20.57-8.78-32.27-10.34L269,220.12l-5.22,33.11h40.12s6.06-31.64,0-39.45Z"/><path class="cls-13" d="M207,203.44c-11.7,1.56-27.87,4.65-32.27,10.34-6,7.81,0,39.45,0,39.45h40.15l-5.25-33.11L207,203.44Z"/><path class="cls-9" d="M263.79,253.23,269,220.12a57,57,0,0,1-59.35,0l5.25,33.11Z"/><path class="cls-14" d="M65.89,198.52l-21.62,8.4-21.62-8.4c-1.42.11-4.32.34-5.31.44l7.44,54.27h39L71.19,199c-1-.1-3.87-.33-5.3-.44Z"/><path class="cls-15" d="M65.89,198.52l-.81-.06-3.43-41.58H26.89l-3.43,41.58-.81.06,21.62,8.4,21.62-8.4"/><path class="cls-8" d="M82.17,139.61c-2.85-1.75-7,1.62-9.35,7.53S71,159.26,73.8,161s7-1.63,9.35-7.54,1.87-12.12-1-13.87Z"/><path class="cls-8" d="M6.37,139.61c2.85-1.75,7,1.62,9.35,7.53s1.86,12.12-1,13.88-7-1.63-9.34-7.54-1.87-12.12,1-13.87"/><path class="cls-16" d="M25,178.56a58.81,58.81,0,0,1-11.94-17.08h0A58.81,58.81,0,0,0,25,178.56h0M6.36,139.62a69.62,69.62,0,0,1-.79-8.82,69.62,69.62,0,0,0,.79,8.82h0m-.8-9.24c0-.3,0-.61,0-.92,0,.31,0,.62,0,.92m0-1.74c0-.29,0-.58,0-.87,0,.29,0,.58,0,.87m0-1.31v0m0-.1c.49-17.16,8-28.6,19-34.44-11,5.84-18.53,17.28-19,34.44m19-34.44.05,0-.05,0m.06,0,0,0,0,0m0,0,0,0,0,0m19.56-4.52h0"/><path class="cls-17" d="M44.27,187.33h0m-.07,0h0m-.06,0h0m-.07,0h0m-.07,0h0m-.06,0h0"/><path class="cls-17" d="M13.05,161.48h0a78.91,78.91,0,0,1-6.69-21.86h0a78.91,78.91,0,0,0,6.69,21.86"/><path class="cls-18" d="M44.27,88.21h-.09c-.77,0-1.54,0-2.31.06l-.7,0c-.58,0-1.16.08-1.73.14l-.69.07c-.77.08-1.53.19-2.29.31h0c-.75.12-1.49.27-2.22.43l-.65.16c-.54.13-1.08.27-1.61.42l-.64.18c-.71.22-1.41.44-2.09.69h0c-.69.25-1.37.53-2.05.82l-.59.27c-.49.22-1,.46-1.46.7l-.36.18,0,0h0l0,0h0l-.05,0h0l-.17.09c-.62.34-1.23.68-1.83,1.05l-.18.12c-.54.34-1.06.69-1.58,1l-.55.4-1.17.91-.55.45c-.42.36-.83.73-1.24,1.1l-.35.33c-.51.49-1,1-1.48,1.52l-.37.42c-.36.4-.7.81-1,1.24-.15.19-.31.38-.45.58-.32.41-.62.83-.92,1.25l-.39.56c-.41.61-.8,1.24-1.18,1.89l-.06.1c-.35.62-.69,1.26-1,1.91-.11.22-.21.44-.31.65-.24.5-.46,1-.68,1.52l-.3.72c-.23.57-.44,1.16-.65,1.76-.06.17-.13.34-.18.52-.26.77-.5,1.56-.71,2.37,0,.19-.1.39-.14.58-.17.63-.32,1.28-.45,1.93-.06.28-.11.56-.17.84-.11.62-.22,1.25-.32,1.88,0,.27-.08.53-.11.8a55.31,55.31,0,0,0-.47,5.61c0,.1,0,.19,0,.29h0v.1c0,.14,0,.29,0,.44s0,.58,0,.87v.82c0,.31,0,.62,0,.92,0,.14,0,.28,0,.42s0,.29,0,.44c0,.33,0,.65,0,1,0,.49,0,1,.08,1.47,0,.32,0,.65.07,1,0,.49.09,1,.14,1.49,0,.32.07.63.11,1,.06.56.14,1.12.22,1.68,0,.25.06.49.1.74a.28.28,0,0,0,0,.09c0,.2.07.4.1.61.11.68.22,1.35.35,2,.06.33.13.66.2,1,.12.57.23,1.14.36,1.71.08.37.17.73.26,1.09.13.54.26,1.07.4,1.6l.3,1.13c.15.52.29,1,.45,1.55.11.37.23.75.35,1.12s.32,1,.49,1.52.25.74.39,1.11.36,1,.54,1.5l.42,1.08c.2.5.4,1,.61,1.48s.29.7.44,1c.22.5.44,1,.67,1.48l.36.8.1.18c.25.52.5,1,.76,1.54.15.27.28.56.43.83.4.78.82,1.54,1.25,2.28l.05.08c.42.73.86,1.45,1.3,2.16.15.24.31.47.47.7.31.48.62,1,.94,1.43l.58.8c.29.42.59.83.9,1.24l.63.81.9,1.12.69.8c.3.35.6.69.91,1l.72.76c.31.32.62.64.94.95l.37.37v0a39.4,39.4,0,0,0,3.21,2.78h0c.71.55,1.44,1.07,2.17,1.55l.07.05,1,.64c.15.08.3.16.44.25.5.29,1,.56,1.51.81l.72.36.8.35c.41.18.83.35,1.25.51l.67.23c.38.13.77.25,1.15.36l.57.16c.52.13,1,.25,1.59.35l.4.07c.48.08,1,.14,1.45.19l.36,0c.49,0,1,.07,1.46.08h.42c21.38,0,38.72-30.9,38.72-58.28S65.65,88.21,44.27,88.21Z"/><path class="cls-19" d="M63.63,181l-.19-2.3.11-.1.2,2.29-.12.11m-38.73,0-.11-.12.2-2.26.1.1-.19,2.28"/><path class="cls-7" d="M44.27,189.83c-7.06,0-13.67-3.39-19.37-8.89l.19-2.28c5.05,4.81,10.8,7.94,16.94,8.56h2.65c6.83-.13,13.22-3.39,18.76-8.67l.19,2.3c-5.69,5.5-12.3,8.87-19.36,8.87"/><path class="cls-7" d="M44.21,187.33h0m.11,0h0m-.17,0h0m.24,0h0m-.3,0h0m.36,0h0m-.43,0h0m.49,0h0m-.54,0h0m.6,0h0m-.65,0h0m.7,0h0m-.75,0h0m0,0h0m.83,0c6.87-.13,13.31-3.45,18.87-8.79v0l-.11.1c-5.54,5.28-11.93,8.54-18.76,8.67m-.86,0h0m-.07,0h0m-.06,0h0m-.06,0h0m-.06,0h0m-.06,0h0m-.08,0h0m-.06,0h0m0,0h0m-.06,0h0m-.07,0h0m-.07,0h0m-.06,0h0m-.06,0h0m-.06,0h0m-.06,0h0m-.07,0h0m-.06,0h0m-.07,0h0m-.08,0h0m-.06,0h0m-.06,0h0m0,0h0m-.06,0h0m-.07,0h0m-.06,0h0m-.07,0h0m-.07,0h0m-.07,0h0"/><path class="cls-20" d="M44.14,187.33h0"/><polyline class="cls-20" points="44.14 187.33 44.14 187.33 44.14 187.33 44.14 187.33"/><path class="cls-20" d="M44.08,187.33h0"/><path class="cls-20" d="M44.09,187.33h0"/><path class="cls-20" d="M44,187.33h0"/><path class="cls-20" d="M44,187.33h0"/><path class="cls-20" d="M44,187.33h0"/><path class="cls-20" d="M44,187.33h0"/><path class="cls-20" d="M43.89,187.33h0"/><path class="cls-20" d="M43.92,187.33h0"/><path class="cls-21" d="M25.09,178.66l-.1-.1h0l.1.1h0"/><path class="cls-20" d="M43.83,187.33h0m-.07,0h0m-.06,0h0m-.06,0h0m-.06,0h0m-.06,0h0m-.07,0h0m-.06,0h0m-.06,0h0m-.06,0h0m-.07,0h0m-.06,0h0m-.06,0h0m-.06,0h0m-.06,0h0m-.07,0h0m-.06,0h0m-.06,0h0m-.06,0h0m-.06,0h0m-.07,0h0m-.06,0h0m-.06,0h0m-.06,0h0m-.06,0h0m-.07,0h0m-.06,0h0m-.06,0h0m-.06,0h0m-.06,0c-6.14-.62-11.89-3.75-16.94-8.56h0c5.05,4.8,10.8,7.94,16.94,8.56"/><path class="cls-20" d="M43.85,187.33H42c-6.14-.62-11.89-3.76-16.94-8.56l-.1-.1v0c5.56,5.34,12,8.66,18.86,8.79"/><path class="cls-22" d="M113.5,210.94c-5.81-7.51-30.78-10.83-42.31-12l-7.44,54.27H113.5s6.47-33.93,0-42.29ZM17.34,199l7.44,54.27H-25s-6.47-33.93,0-42.29c5.81-7.51,30.77-10.83,42.3-12Z"/><path class="cls-23" d="M76.08,253.23l18-36.49H89.47l4.12-5.8-17-11.38c-2-.24-3.82-.44-5.39-.6l-7.44,54.27Z"/><path class="cls-23" d="M17.34,199c-1.57.16-3.4.36-5.39.6L-5,210.94l4.12,5.8H-5.55l18,36.49H24.78L17.34,199Z"/><path class="cls-22" d="M85.34,118.67A44,44,0,0,0,82,106.33a36.85,36.85,0,0,0-8.43-12,37.77,37.77,0,0,0-13.5-8.18,47.45,47.45,0,0,0-7.8-2c-1.33-.16-2.66-.37-4-.49l-4.19-.19-3.66.18c-1.3.11-2.76.32-4.13.5a48.3,48.3,0,0,0-7.83,2A37.73,37.73,0,0,0,15,94.35a37,37,0,0,0-8.44,12,44.69,44.69,0,0,0-3.34,12.34c-.16,2-.33,3.8-.37,5.56s.11,3.49.17,5.09c.38,3,.68,5.52,1.11,7.67,1.06,4.36,1.74,6.76,1.74,6.76l2.45-.5s-.08-2.43-.33-6.51c0-2.08.14-4.73.16-7.69l.51-4.38c.26-1.44.54-2.94.85-4.47,4.76-10.63,14.27-20.63,30.27-14.43a14,14,0,0,0,9,0c16-6.21,25.52,3.81,30.27,14.44.3,1.5.58,2.91.84,4.36.18,1.62.35,3.16.52,4.6,0,2.82.22,5.29.17,7.4-.26,4.28-.35,6.74-.35,6.74l2.47.38s.66-2.37,1.71-6.52c.43-2.13.75-4.86,1.14-8,0-1.53.1-3.15.16-4.86s-.21-3.69-.38-5.66Z"/><path class="cls-22" d="M44.27,161.08a9.1,9.1,0,0,1,1-.37,13.66,13.66,0,0,1,2.51-.5,14.23,14.23,0,0,1,6.61,1,13.93,13.93,0,0,1,5.4,3.94,13.63,13.63,0,0,1,1.43,2.13,8.36,8.36,0,0,1,.47,1,7.91,7.91,0,0,1-1,.38,13.62,13.62,0,0,1-2.52.5,14.19,14.19,0,0,1-12-5,14.11,14.11,0,0,1-1.43-2.13,7.59,7.59,0,0,1-.47-1Z"/><path class="cls-22" d="M44.27,161.08a7.59,7.59,0,0,1-.47,1,13.54,13.54,0,0,1-1.44,2.13,14.15,14.15,0,0,1-12,5,13.62,13.62,0,0,1-2.52-.5,7.91,7.91,0,0,1-1-.38,8.36,8.36,0,0,1,.47-1,13.63,13.63,0,0,1,1.43-2.13,14,14,0,0,1,5.4-3.94,14.23,14.23,0,0,1,6.61-1,13.84,13.84,0,0,1,2.51.5,9.1,9.1,0,0,1,1,.37Z"/><path class="cls-14" d="M70.91,198.93l-5-.41-21.62,8.4,5,13.12,20.5-10.62,1.15-10.49Z"/><path class="cls-14" d="M17.62,198.93l5-.41,21.62,8.4-5,13.12-20.5-10.62-1.16-10.49Z"/><polygon class="cls-24" points="70.91 211.63 49.7 220.88 48.67 221.32 48.38 220.37 44.27 206.92 50.14 219.7 48.83 219.2 68.61 207.2 70.91 211.63 70.91 211.63"/><polygon class="cls-24" points="44.27 206.92 40.16 220.38 39.88 221.32 38.85 220.89 17.7 212 19.94 207.54 39.7 219.19 38.39 219.7 44.27 206.92 44.27 206.92"/><path class="cls-14" d="M17.62,198.93l5-.41,21.62,8.4-5,13.12-20.5-10.62-1.16-10.49Z"/><path class="cls-22" d="M17.34,199-1.53,211.59l5.43,7.65H-1.53l16.77,34h9.54L17.34,199Zm53.85,0,18.87,12.63-5.43,7.65h5.43l-16.76,34H63.75L71.19,199Z"/><path class="cls-14" d="M70.91,198.93l-5-.41-21.62,8.4,5,13.12,20.5-10.62,1.15-10.49Z"/><polygon class="cls-24" points="44.27 206.92 45.52 253.23 43.02 253.23 44.27 206.92 44.27 206.92"/><path class="cls-25" d="M191.74,119.93c-4-2.43-9.78,2.26-13,10.48s-2.6,16.87,1.36,19.3,9.79-2.26,13-10.48,2.61-16.86-1.36-19.3Z"/><path class="cls-25" d="M86.27,119.93c4-2.43,9.79,2.26,13,10.48s2.6,16.87-1.37,19.3-9.79-2.26-13-10.48-2.6-16.86,1.36-19.3"/><path class="cls-26" d="M235.34,219.18c-10.61-13.7-67.07-17.38-67.07-17.38H109.75s-56.47,3.68-67.07,17.38c-9,11.63,0,58.84,0,58.84H235.34s9-47.21,0-58.84Z"/><path class="cls-27" d="M163.19,144H114.83l-5.08,57.84c0,6.4,13.1,11.58,29.26,11.58s29.26-5.18,29.26-11.58L163.19,144"/><polyline class="cls-28" points="111.9 177.27 111.9 177.27 112.18 174.13 112.18 174.13 111.9 177.27"/><path class="cls-7" d="M139,189.81c-9.89,0-19.14-4.79-27.11-12.54l.28-3.14c7.74,7.42,16.69,12,26.24,12.2H139c9.77,0,18.92-4.65,26.83-12.23l.28,3.22c-8,7.73-17.23,12.49-27.11,12.49"/><path class="cls-14" d="M176.09,202.48c-1.6-.15-5.16-.44-7-.58L139,213.58l7,18.26,28.52-14.78,1.61-14.58Z"/><path class="cls-14" d="M101.94,202.48c1.6-.15,5.16-.44,7-.58L139,213.58l-6.94,18.26-28.52-14.78-1.61-14.58Z"/><polygon class="cls-29" points="139.01 213.59 140.75 278.02 137.28 278.02 139.01 213.59 139.01 213.59"/><path class="cls-30" d="M172.64,202.09v.09l-3.53-.28L139,213.58l6,18.62.34,1,1.09-.49,29.29-13.29,1.19-.53.25-1.57,2.39-14.51Z"/><path class="cls-30" d="M105.4,202.18v-.09l-6.91.76,2.38,14.51.26,1.57,1.19.53,29.28,13.29,1.1.49.33-1,6-18.62L108.93,201.9Z"/><path class="cls-31" d="M112.18,174.13a81.68,81.68,0,0,1-16.6-23.77h0a81.68,81.68,0,0,0,16.6,23.77h0M86.26,119.94a99.79,99.79,0,0,1-1.13-13.61,99.79,99.79,0,0,0,1.13,13.61h0M85.13,104h0m0-.15v0m0-.67c0-.23,0-.47,0-.7,0,.23,0,.47,0,.7m0-.76a1.09,1.09,0,0,1,0-.18,1.09,1.09,0,0,0,0,.18m0-.2v0m0-.21a1.41,1.41,0,0,0,0-.2,1.41,1.41,0,0,1,0,.2m0-.21C86.44,70.15,105,52.7,129.3,49.11c-24.26,3.59-42.86,21-44.11,52.72M129.3,49.11h0m.09,0,.33-.05-.33.05m.33-.05.33,0-.33,0m.34,0h0m.08,0h0m.1,0h0m.08,0h0m.08,0h0m.08,0h0m.09,0h0m.08,0h0m.1,0h0m.08,0h0m.09,0h0m.08,0h0m.08,0h0m.08,0h0m.09,0h0m.08,0h0m.09,0h0m.08,0h0m.08,0h0m.09,0h0m.1,0h0m.08,0h0m.08,0h0m.08,0h0m.09,0h0m.09,0h0m.09,0h0m.09,0h0m.08,0h0m.08,0h0m.09,0h0m.08,0h0m.09,0h0m.09,0h0m.08,0h0m.08,0h0m.09,0h0m.08,0h0m.08,0h0m.1,0h0m.09,0h0m.08,0h0m.08,0h0m.09,0h0m.09,0h0m.08,0h0m.09,0h0m.08,0h0m.09,0h0m.08,0h0m.09,0h0m.08,0h0m.09,0h0m.09,0h0m.09,0h0m.08,0h0m.09,0h0m.09,0h0m.08,0h0m.08,0h0m.09,0h0m.08,0h0m.09,0h0m.09,0h0m.86,0h0m.07,0h0m.08,0h0m.09,0h0m.09,0h0m.09,0h0m.09,0h0m.09,0h0m.08,0h0m.08,0h0m.09,0h0m.09,0h0m.1,0h0m.08,0h0m.08,0h0m.09,0h0m.08,0h0m.09,0h0m.08,0h0m.08,0h0m.08,0h0m.08,0h0m.09,0h0m.09,0h0m.08,0h0m.09,0h0m.09,0h0m.09,0h0m.08,0h0m.09,0h0m.09,0h0m.08,0h0"/><path class="cls-17" d="M95.58,150.36h0a109.42,109.42,0,0,1-9.32-30.42h0a109.31,109.31,0,0,0,9.32,30.42"/><path class="cls-32" d="M139,48.41h-2.8l-.76,0h-5.4l-.33,0h0l-.33.05h-.09l-.65.11-1,.16-1.53.29-.93.19-1.62.39-.77.19c-.79.21-1.57.43-2.34.67l-.11,0c-.74.23-1.46.47-2.18.73l-.76.29-1.48.58-.86.37-1.33.6-.87.42c-.44.22-.87.44-1.29.67l-.83.44c-.45.25-.89.51-1.33.77l-.72.43c-.61.38-1.2.77-1.79,1.17l-.25.18c-.62.42-1.22.87-1.81,1.32-.23.17-.44.35-.66.53l-1.18,1c-.24.2-.48.42-.72.63l-1,1-.72.7-1,1-.68.73-1,1.13-.59.69q-.63.78-1.23,1.59c-.1.12-.2.25-.29.38-.46.63-.91,1.28-1.35,1.94l-.48.76c-.28.45-.57.9-.84,1.36l-.51.9c-.25.44-.49.88-.72,1.33s-.33.64-.49,1-.45.92-.66,1.38l-.45,1c-.21.5-.42,1-.63,1.53-.12.31-.25.61-.37.93-.25.68-.5,1.37-.73,2.07,0,.16-.11.31-.17.47-.28.86-.53,1.73-.78,2.62l-.24.93c-.15.61-.31,1.21-.45,1.83l-.24,1.12c-.12.57-.23,1.15-.34,1.74-.07.4-.14.8-.2,1.2q-.15.9-.27,1.8c-.06.4-.11.8-.16,1.21-.08.65-.15,1.32-.21,2,0,.36-.07.73-.1,1.1-.07.88-.13,1.78-.17,2.69,0,.16,0,.32,0,.49v0h0a1.41,1.41,0,0,1,0,.2h0v.22a1.09,1.09,0,0,0,0,.18v.06c0,.23,0,.47,0,.7s0,.2,0,.3V104h0v2.3c0,.07,0,.14,0,.2,0,1,0,2,.09,3,0,.16,0,.32,0,.48,0,1,.12,2,.2,3,0,.15,0,.31,0,.46q.12,1.5.3,3c0,.13,0,.26,0,.39.12,1,.26,2.06.41,3.09a.22.22,0,0,1,0,.08l0,.13c.18,1.23.39,2.45.62,3.67,0,.12,0,.24.07.35.23,1.18.47,2.36.74,3.53l.09.39c.27,1.18.56,2.35.87,3.52l.09.33c.33,1.21.67,2.42,1,3.63a.57.57,0,0,1,0,.14c.39,1.24.79,2.48,1.21,3.71l.06.15c.41,1.18.84,2.35,1.29,3.5,0,.11.08.22.13.33.43,1.1.87,2.19,1.34,3.27L94,147c.47,1.07.95,2.13,1.45,3.17l.09.21.07.14c.51,1.06,1,2.1,1.57,3.13l.12.24c.58,1.09,1.17,2.17,1.78,3.23v0c.61,1.05,1.24,2.09,1.88,3.1l.15.23c.6.95,1.22,1.88,1.85,2.79l.21.31c.62.88,1.25,1.74,1.89,2.59l.25.32c.64.84,1.3,1.65,2,2.45l.24.28q1,1.22,2.1,2.37l.18.19c.76.81,1.53,1.59,2.32,2.35l0,0h0c5.77,5.53,12.22,9.49,19.09,11.23l.26.06,1.39.31.3.06a32.32,32.32,0,0,0,3.26.44l.47,0,1.17.05.3,0H139c29.75,0,53.88-43,53.88-81.09S168.76,48.41,139,48.41Z"/><polyline class="cls-33" points="112.18 174.13 112.18 174.13 112.18 174.13 112.18 174.13 112.18 174.13"/><polyline class="cls-10" points="112.18 174.13 112.18 174.13 112.18 174.1 112.18 174.1 112.18 174.13"/><path class="cls-10" d="M139,186.33h0m-.08,0h0m-.09,0h0m-.08,0h0m-.09,0h0m-.08,0h0m-.09,0h0m-.07,0c-9.55-.18-18.5-4.78-26.24-12.2h0v0c7.74,7.43,16.69,12.05,26.24,12.23"/><path class="cls-22" d="M139,48.41c-14.72,0-28,4.61-37.77,13.85a9.11,9.11,0,0,0-2,0l-2.07.2a12,12,0,0,0-1.68.32l-1.28.28-1.09.25,1.11.2,1.26.23a11.26,11.26,0,0,1,1.6.34l1,.31c-.59.09-1.19.18-1.76.29a24.84,24.84,0,0,0-2.68.75,13.27,13.27,0,0,0-2.28,1,7.77,7.77,0,0,0-1.75,1.13,5.52,5.52,0,0,0-1.15,1.08l-.83,1L88.73,69a5,5,0,0,1,1.33-.59A6.59,6.59,0,0,1,91.87,68a10.77,10.77,0,0,1,2.18-.15,8,8,0,0,1,1.53.07l-.63.27a32.42,32.42,0,0,0-4.67,2.63,20.27,20.27,0,0,0-3.52,3,14.89,14.89,0,0,0-1.11,1.46,6,6,0,0,0-.7,1.19l-.51,1.07.87-.79a5.33,5.33,0,0,1,1-.8c.45-.26.89-.59,1.44-.85a18.25,18.25,0,0,1,3.87-1.32c.29-.06.6-.1.89-.15-4.67,8.41-7.4,18.91-7.4,31.6a100.34,100.34,0,0,0,2.08,19.94h3.54s1.43-15.58,7.35-20.88c3.56-3.19,6.1-15.6,7.56-25,1.07,4.32,2.94,9.23,6.24,12.28,0,0-3.27-7.31,0-10.51,0,0,3,11.24,7.08,14,0,0-.62-3.53,1.87-5.71,0,0,4.67,17.45,51.11,7.8,0,0,14.91,18.08,15.37,28h3.48a101.08,101.08,0,0,0,2.08-19.94c0-38.08-24.13-56.83-53.88-56.83Z"/></g></svg>